<svg id="svg8" xmlns="http://www.w3.org/2000/svg" viewBox="0 0 175.7 90"><defs><style>.cls-1{fill:#fff;}</style></defs><title>logo</title><g id="layer1"><path id="path23" class="cls-1" d="M90.47,54.7c-5.53-1.36-9.53-3.07-15.82-6.75-3.08-1.81-3.13-1.81-11.15-1-14.13,1.47-30.61-1.17-44.89-7.19C5.84,34.4-4.7,27.26,6.16,31.34c14.24,5.37,25.45,6.27,36.59,2.94,9.66-2.88,17.76-6.44,28.53-12.52C101.69,4.6,111.52,1.1,128.92,1.22a64.93,64.93,0,0,1,29.84,7c6.94,3.41,15.85,9,15.28,9.56-.19.19-3-.33-6.27-1.15-20-5.06-35.57-1.34-60.9,14.51C96.26,37.8,91,40.5,84.13,42.81c-4.84,1.63-5.11,1.82-3.42,2.47a52.13,52.13,0,0,0,7.22,1.51c10.12,1.53,19.89-1,32.7-8.6,9.12-5.39,14.11-7.58,19.74-8.69,8.72-1.72,19,.62,29.09,6.59,5.66,3.37,5.56,4.23-.28,2.5-8.31-2.47-16.39-.91-27.66,5.35-19.54,10.84-23.93,12.29-37,12.2a60.38,60.38,0,0,1-14-1.44Z"/></g><path class="cls-1" d="M3.62,82.27V60.08H23.34v2.65H8.07v7h14.4v2.65H8.07v9.94Z"/><path class="cls-1" d="M28,82.27V59.33h4.36V82.27Z"/><path class="cls-1" d="M58.77,66.56l-10.25,17a10.76,10.76,0,0,1-4.26,4.07A19,19,0,0,1,38,89.35l-1-2.44a17,17,0,0,0,4.69-1.29,6.14,6.14,0,0,0,2.55-2.38L45,81.93,35.78,66.56h4.67l6.89,12.16,7-12.16Z"/><path class="cls-1" d="M66.12,81.83a16.64,16.64,0,0,1-5.17-2l1.62-2.37a17.64,17.64,0,0,0,4.71,1.9,23.13,23.13,0,0,0,5.5.59A12.71,12.71,0,0,0,78.19,79a2.91,2.91,0,0,0,1.92-2.65c0-1-.6-1.68-1.79-2.17a27.57,27.57,0,0,0-5.67-1.35,42.67,42.67,0,0,1-6.07-1.3,9.62,9.62,0,0,1-3.71-2,4.09,4.09,0,0,1-1.35-3.16A4.77,4.77,0,0,1,63,63,9.62,9.62,0,0,1,67,60.66a20.43,20.43,0,0,1,6.09-.83,25.06,25.06,0,0,1,6.13.72,14.94,14.94,0,0,1,4.77,2l-1.61,2.37A17.28,17.28,0,0,0,78,63.06a18.39,18.39,0,0,0-4.84-.61,11.5,11.5,0,0,0-5.28,1A3.08,3.08,0,0,0,66,66.22a2.47,2.47,0,0,0,1.68,2.28A23.08,23.08,0,0,0,73,69.9a54,54,0,0,1,6.28,1.31,10.43,10.43,0,0,1,3.84,1.87,3.76,3.76,0,0,1,1.44,3,4.61,4.61,0,0,1-1.44,3.37A9.65,9.65,0,0,1,79,81.73a22.33,22.33,0,0,1-6.31.79A29.42,29.42,0,0,1,66.12,81.83Z"/><path class="cls-1" d="M109.38,72.48v9.79H105v-9.6a3.67,3.67,0,0,0-1.12-3,5.48,5.48,0,0,0-3.55-.94A7.34,7.34,0,0,0,95.84,70a4,4,0,0,0-1.68,3.34v8.94H89.79V59.33h4.37V69a6.67,6.67,0,0,1,3-2.08,12.23,12.23,0,0,1,4.32-.72Q109.38,66.19,109.38,72.48Z"/><path class="cls-1" d="M134.43,74.48H118.72q.23,5.52,7,5.52a13.86,13.86,0,0,0,6.93-1.78L134,80.46a12.27,12.27,0,0,1-3.78,1.48,19.48,19.48,0,0,1-4.6.55q-5.28,0-8.29-2.17a6.9,6.9,0,0,1-3-5.93,7.15,7.15,0,0,1,1.33-4.27,8.56,8.56,0,0,1,3.73-2.9,13.65,13.65,0,0,1,5.45-1,10.9,10.9,0,0,1,7,2.06,6.91,6.91,0,0,1,2.55,5.7ZM120.9,69.59a4.69,4.69,0,0,0-2,3h11.65a4.28,4.28,0,0,0-1.71-3,6.51,6.51,0,0,0-3.88-1A7.1,7.1,0,0,0,120.9,69.59Z"/><path class="cls-1" d="M158.25,74.48H142.54q.22,5.52,7,5.52a13.92,13.92,0,0,0,6.94-1.78l1.35,2.24a12.27,12.27,0,0,1-3.78,1.48,19.42,19.42,0,0,1-4.6.55q-5.28,0-8.29-2.17a6.9,6.9,0,0,1-3-5.93,7.15,7.15,0,0,1,1.33-4.27,8.56,8.56,0,0,1,3.73-2.9,13.67,13.67,0,0,1,5.46-1,10.87,10.87,0,0,1,7,2.06,6.91,6.91,0,0,1,2.55,5.7Zm-13.52-4.89a4.7,4.7,0,0,0-2,3h11.65a4.27,4.27,0,0,0-1.7-3,6.55,6.55,0,0,0-3.89-1A7,7,0,0,0,144.73,69.59Z"/><path class="cls-1" d="M168.81,69v7.89a2.58,2.58,0,0,0,1,2.29,4.77,4.77,0,0,0,2.73.67,10.88,10.88,0,0,0,2.31-.25v2.56a14.67,14.67,0,0,1-3.27.34,8.85,8.85,0,0,1-5.28-1.37,4.65,4.65,0,0,1-1.88-4V69h-4.27V66.56h4.27V62.64l4.41-1.09v5h6.06V69Z"/></svg>